<svg width="256" height="257" viewBox="0 0 256 257" fill="none" xmlns="http://www.w3.org/2000/svg">
<g clip-path="url(#clip0)">
<path d="M239.133 192.229C239.133 192.229 204.377 259.169 118.88 255.859C129.444 237.583 179.728 150.501 179.728 150.501C179.728 150.501 191.877 130.993 177.545 100.076C170.256 89.3359 162.826 78.1029 138.881 72.1166C158.142 71.9406 242.83 72.1166 242.83 72.1166C242.83 72.1166 274.557 124.831 239.133 192.229Z" fill="#FCD900"/>
<path d="M16.9728 192.757C16.9728 192.757 -23.6281 129.197 22.0083 56.7989C32.537 75.0746 82.8215 162.157 82.8215 162.157C82.8215 162.157 93.6671 182.44 127.577 185.468C140.501 184.517 153.952 183.707 171.136 165.995C161.664 182.757 119.161 256 119.161 256C119.161 256 57.6088 257.127 16.9728 192.757Z" fill="#61BC5B"/>
<path d="M127.789 0.0352168C127.789 0.0352168 203.11 -3.34525 243.042 72.3631H121.38C121.38 72.3631 98.4209 71.6237 78.8071 99.4773C73.173 111.168 67.1164 123.211 73.9125 146.945C64.1232 130.359 21.9378 56.9045 21.9378 56.9045C21.9378 56.9045 51.693 3.02834 127.789 0.0352168Z" fill="#EF3F36"/>
<path d="M118.845 256.493L135.958 185.081C135.958 185.081 154.762 183.602 170.538 166.312C160.748 183.531 118.845 256.493 118.845 256.493Z" fill="#5AB055"/>
<path d="M70.4616 129.056C70.4616 97.5758 95.9912 72.0462 127.472 72.0462C158.952 72.0462 184.482 97.5758 184.482 129.056C184.482 160.537 158.952 186.067 127.472 186.067C95.9912 186.031 70.4616 160.537 70.4616 129.056Z" fill="white"/>
<path d="M80.0044 129.056C80.0044 102.858 101.238 81.589 127.472 81.589C153.67 81.589 174.939 102.823 174.939 129.056C174.939 155.255 153.706 176.524 127.472 176.524C101.273 176.524 80.0044 155.255 80.0044 129.056Z" fill="url(#paint0_linear)"/>
<path d="M242.795 72.1519L172.333 92.822C172.333 92.822 161.699 77.2226 138.846 72.1519C158.671 72.0462 242.795 72.1519 242.795 72.1519Z" fill="#EACA05"/>
<path d="M72.5392 144.339C62.6443 127.19 21.9378 56.9045 21.9378 56.9045L74.1238 108.527C74.1238 108.527 68.7714 119.549 70.7785 135.324L72.5392 144.339Z" fill="#DF3A32"/>
<mask id="mask0" mask-type="alpha" maskUnits="userSpaceOnUse" x="-6" y="149" width="268" height="113">
<rect x="-6" y="149" width="268" height="113" fill="#414342"/>
</mask>
<g mask="url(#mask0)">
<ellipse cx="128" cy="128.5" rx="128" ry="128.5" fill="#424342"/>
</g>
<path d="M95.3984 201.223C95.3984 202.975 95.1572 204.562 94.6748 205.983C94.1924 207.405 93.5195 208.662 92.6562 209.754C91.8184 210.846 90.8027 211.785 89.6094 212.572C88.4414 213.359 87.1465 214.007 85.7246 214.515C84.3027 215.022 82.7793 215.403 81.1543 215.657C79.5547 215.886 77.7646 216 75.7842 216H62.6826C61.8447 216 61.1338 215.759 60.5498 215.276C59.9912 214.769 59.7119 213.956 59.7119 212.839V169.878C59.7119 168.761 59.9912 167.961 60.5498 167.479C61.1338 166.971 61.8447 166.717 62.6826 166.717H75.0605C78.082 166.717 80.6338 166.971 82.7158 167.479C84.8232 167.986 86.5879 168.761 88.0098 169.802C89.457 170.817 90.5615 172.112 91.3232 173.687C92.085 175.261 92.4658 177.114 92.4658 179.247C92.4658 180.44 92.3135 181.57 92.0088 182.637C91.7041 183.678 91.2598 184.63 90.6758 185.493C90.0918 186.356 89.3682 187.118 88.5049 187.778C87.667 188.438 86.7021 188.972 85.6104 189.378C87.0068 189.632 88.2891 190.076 89.457 190.711C90.6504 191.346 91.6787 192.171 92.542 193.187C93.4307 194.177 94.1289 195.345 94.6367 196.69C95.1445 198.036 95.3984 199.547 95.3984 201.223ZM82.4492 180.466C82.4492 179.476 82.2969 178.587 81.9922 177.8C81.6875 177.013 81.2305 176.365 80.6211 175.857C80.0117 175.324 79.2373 174.918 78.2979 174.639C77.3838 174.359 76.1523 174.22 74.6035 174.22H69.5381V187.017H75.1367C76.584 187.017 77.7393 186.852 78.6025 186.521C79.4658 186.166 80.1768 185.696 80.7354 185.112C81.3193 184.503 81.751 183.805 82.0303 183.018C82.3096 182.205 82.4492 181.354 82.4492 180.466ZM85.001 201.565C85.001 200.423 84.8105 199.407 84.4297 198.519C84.0488 197.604 83.4902 196.843 82.7539 196.233C82.0176 195.624 81.0781 195.154 79.9355 194.824C78.793 194.494 77.3076 194.329 75.4795 194.329H69.5381V208.345H76.7744C78.1709 208.345 79.3389 208.205 80.2783 207.926C81.2432 207.621 82.0684 207.189 82.7539 206.631C83.4648 206.047 84.0107 205.336 84.3916 204.498C84.7979 203.635 85.001 202.657 85.001 201.565ZM134.246 196.729C134.246 197.896 133.979 198.76 133.446 199.318C132.938 199.877 132.228 200.156 131.313 200.156H110.633C110.633 201.604 110.798 202.924 111.128 204.117C111.483 205.285 112.029 206.288 112.766 207.126C113.527 207.938 114.492 208.561 115.66 208.992C116.854 209.424 118.275 209.64 119.926 209.64C121.602 209.64 123.074 209.525 124.344 209.297C125.613 209.043 126.705 208.776 127.619 208.497C128.559 208.192 129.333 207.926 129.942 207.697C130.552 207.443 131.047 207.316 131.428 207.316C131.656 207.316 131.847 207.367 131.999 207.469C132.151 207.545 132.278 207.697 132.38 207.926C132.481 208.154 132.545 208.484 132.57 208.916C132.621 209.322 132.646 209.843 132.646 210.478C132.646 211.036 132.634 211.519 132.608 211.925C132.583 212.306 132.545 212.636 132.494 212.915C132.443 213.194 132.367 213.436 132.266 213.639C132.164 213.816 132.024 213.994 131.847 214.172C131.694 214.35 131.25 214.591 130.514 214.896C129.777 215.2 128.838 215.505 127.695 215.81C126.553 216.089 125.245 216.33 123.772 216.533C122.3 216.762 120.726 216.876 119.05 216.876C116.028 216.876 113.375 216.495 111.09 215.733C108.83 214.972 106.938 213.816 105.415 212.268C103.892 210.719 102.749 208.764 101.987 206.402C101.251 204.041 100.883 201.273 100.883 198.1C100.883 195.078 101.276 192.361 102.063 189.949C102.851 187.512 103.993 185.455 105.491 183.779C106.989 182.078 108.805 180.783 110.938 179.895C113.096 179.006 115.521 178.562 118.212 178.562C121.056 178.562 123.48 178.98 125.486 179.818C127.518 180.656 129.181 181.824 130.476 183.322C131.771 184.795 132.723 186.547 133.332 188.578C133.941 190.609 134.246 192.818 134.246 195.205V196.729ZM124.953 193.986C125.029 191.295 124.483 189.188 123.315 187.664C122.173 186.115 120.396 185.341 117.983 185.341C116.765 185.341 115.698 185.569 114.784 186.026C113.896 186.483 113.146 187.105 112.537 187.893C111.953 188.654 111.496 189.568 111.166 190.635C110.861 191.676 110.684 192.793 110.633 193.986H124.953ZM161.744 211.354C161.744 212.471 161.668 213.334 161.516 213.943C161.389 214.527 161.211 214.946 160.982 215.2C160.754 215.429 160.411 215.645 159.954 215.848C159.522 216.025 159.002 216.178 158.393 216.305C157.809 216.457 157.161 216.571 156.45 216.647C155.765 216.724 155.066 216.762 154.355 216.762C152.451 216.762 150.801 216.521 149.404 216.038C148.008 215.556 146.853 214.819 145.938 213.829C145.024 212.813 144.352 211.544 143.92 210.021C143.488 208.497 143.272 206.694 143.272 204.612V187.207H139.197C138.715 187.207 138.347 186.915 138.093 186.331C137.839 185.722 137.712 184.719 137.712 183.322C137.712 182.586 137.737 181.964 137.788 181.456C137.864 180.948 137.966 180.555 138.093 180.275C138.22 179.971 138.372 179.755 138.55 179.628C138.753 179.501 138.981 179.438 139.235 179.438H143.272V171.858C143.272 171.604 143.336 171.376 143.463 171.173C143.615 170.97 143.869 170.805 144.225 170.678C144.605 170.525 145.101 170.424 145.71 170.373C146.345 170.297 147.119 170.259 148.033 170.259C148.973 170.259 149.747 170.297 150.356 170.373C150.991 170.424 151.486 170.525 151.842 170.678C152.197 170.805 152.451 170.97 152.604 171.173C152.756 171.376 152.832 171.604 152.832 171.858V179.438H160.221C160.475 179.438 160.69 179.501 160.868 179.628C161.071 179.755 161.236 179.971 161.363 180.275C161.49 180.555 161.579 180.948 161.63 181.456C161.706 181.964 161.744 182.586 161.744 183.322C161.744 184.719 161.617 185.722 161.363 186.331C161.109 186.915 160.741 187.207 160.259 187.207H152.832V203.165C152.832 205.019 153.124 206.415 153.708 207.354C154.292 208.269 155.333 208.726 156.831 208.726C157.339 208.726 157.796 208.688 158.202 208.611C158.608 208.51 158.964 208.408 159.269 208.307C159.599 208.18 159.865 208.078 160.068 208.002C160.297 207.9 160.5 207.85 160.678 207.85C160.83 207.85 160.97 207.9 161.097 208.002C161.249 208.078 161.363 208.256 161.439 208.535C161.516 208.789 161.579 209.145 161.63 209.602C161.706 210.059 161.744 210.643 161.744 211.354ZM196.859 214.819C196.859 215.175 196.732 215.454 196.479 215.657C196.225 215.86 195.818 216 195.26 216.076C194.727 216.178 193.927 216.229 192.86 216.229C191.718 216.229 190.88 216.178 190.347 216.076C189.839 216 189.471 215.86 189.242 215.657C189.039 215.454 188.938 215.175 188.938 214.819V212.115C187.541 213.613 185.941 214.781 184.139 215.619C182.361 216.457 180.381 216.876 178.197 216.876C176.395 216.876 174.731 216.635 173.208 216.152C171.71 215.695 170.402 215.01 169.285 214.096C168.193 213.156 167.343 212.001 166.733 210.63C166.124 209.259 165.819 207.659 165.819 205.831C165.819 203.851 166.2 202.137 166.962 200.689C167.749 199.217 168.904 198.011 170.428 197.071C171.977 196.106 173.894 195.396 176.179 194.938C178.464 194.481 181.117 194.253 184.139 194.253H187.452V192.196C187.452 191.13 187.338 190.203 187.109 189.416C186.906 188.604 186.551 187.931 186.043 187.397C185.561 186.864 184.9 186.471 184.062 186.217C183.25 185.963 182.234 185.836 181.016 185.836C179.416 185.836 177.981 186.014 176.712 186.369C175.468 186.725 174.363 187.118 173.398 187.55C172.434 187.981 171.621 188.375 170.961 188.73C170.326 189.086 169.806 189.264 169.399 189.264C169.12 189.264 168.866 189.175 168.638 188.997C168.435 188.819 168.257 188.565 168.104 188.235C167.978 187.905 167.876 187.499 167.8 187.017C167.724 186.534 167.686 186.001 167.686 185.417C167.686 184.63 167.749 184.008 167.876 183.551C168.003 183.094 168.244 182.688 168.6 182.332C168.955 181.951 169.577 181.545 170.466 181.113C171.354 180.656 172.396 180.237 173.589 179.856C174.782 179.476 176.077 179.171 177.474 178.942C178.896 178.688 180.355 178.562 181.854 178.562C184.52 178.562 186.792 178.828 188.671 179.361C190.575 179.869 192.137 180.669 193.355 181.761C194.574 182.827 195.463 184.211 196.021 185.912C196.58 187.613 196.859 189.632 196.859 191.968V214.819ZM187.452 200.271H183.796C182.247 200.271 180.927 200.385 179.835 200.613C178.743 200.842 177.854 201.185 177.169 201.642C176.483 202.099 175.976 202.657 175.646 203.317C175.341 203.952 175.188 204.688 175.188 205.526C175.188 206.948 175.633 208.065 176.521 208.878C177.436 209.69 178.692 210.097 180.292 210.097C181.638 210.097 182.869 209.754 183.986 209.068C185.129 208.383 186.284 207.38 187.452 206.06V200.271Z" fill="white"/>
</g>
<defs>
<linearGradient id="paint0_linear" x1="127.47" y1="82.259" x2="127.47" y2="173.666" gradientUnits="userSpaceOnUse">
<stop stop-color="#86BBE5"/>
<stop offset="1" stop-color="#1072BA"/>
</linearGradient>
<clipPath id="clip0">
<rect width="256" height="257" fill="white"/>
</clipPath>
</defs>
</svg>
