<svg xmlns="http://www.w3.org/2000/svg" height="1024" width="1024"><style><![CDATA[.B{flood-opacity:.384}.C{flood-color:#306985}.D{color-interpolation-filters:sRGB}]]></style><defs><linearGradient id="A" x1="871.652" y1="-241.27" x2="260.364" y2="-808.615" gradientUnits="userSpaceOnUse"><stop offset="0" stop-color="#208dc5"/><stop offset=".044" stop-color="#208dc5"/><stop offset="1" stop-color="#16c58d"/></linearGradient><filter id="B" class="D"><feFlood class="B C"/><feComposite in2="SourceGraphic" operator="in"/><feGaussianBlur stdDeviation="10"/><feOffset dy="6"/><feComposite in="SourceGraphic" result="E"/><feColorMatrix values="0 0 0 -1 0 0 0 0 -1 0 0 0 0 -1 0 0 0 0 1 0"/><feFlood class="B C"/><feComposite in2="E" operator="out"/><feGaussianBlur stdDeviation="3.2"/><feOffset dy="0.802139"/><feComposite in2="E" operator="atop"/></filter><linearGradient id="C" x1="578.119" y1="-523.324" x2="624.067" y2="-157.755" gradientUnits="userSpaceOnUse"><stop offset="0" stop-color="#fff"/><stop offset="1" stop-color="#fff" stop-opacity=".85"/></linearGradient><filter id="D" class="D"><feFlood class="B C"/><feComposite in2="SourceGraphic" operator="out"/><feGaussianBlur stdDeviation="6.4"/><feOffset dy="7.21925"/><feComposite in2="SourceGraphic" operator="atop"/></filter><linearGradient id="E" x1="44.832" y1="563.561" x2="970.722" y2="559.748" gradientUnits="userSpaceOnUse"><stop offset="0" stop-color="#208dc5"/><stop offset=".307" stop-color="#208dc5"/><stop offset=".317" stop-color="#1baaa8"/><stop offset=".65" stop-color="#1ba9a9"/><stop offset=".663" stop-color="#16c58d"/><stop offset="1" stop-color="#16c58d"/></linearGradient><clipPath id="F"><circle cx="512" cy="540.362" r="425.375" opacity="1" fill="#000" fill-opacity="1" stroke="#fff" stroke-width="20.678" stroke-linejoin="round" stroke-dasharray="none" stroke-dashoffset="0" stroke-opacity="1"/></clipPath></defs><g transform="matrix(1.130034 0 0 1.130034 -73.501223 1085.7948)"><circle transform="matrix(1.191252 0 0 1.191252 -99.092899 97.111664)" r="373.479" cy="-507.768" cx="518.127" fill="url(#A)" filter="url(#B)"/><circle transform="matrix(1.102001 0 0 1.102001 -52.849546 51.792887)" cx="518.127" cy="-507.768" r="373.479" fill="url(#C)" filter="url(#B)"/><g transform="matrix(-1 0 0 1 1030.493 -1048.984)" filter="url(#D)"><path d="M684.572 59.273h279.622v962.18H684.572zm-314.222 0h262.878v718.124H370.35zm-320.257 0h268.912v554.07H50.092z" clip-path="url(#F)" transform="matrix(.877998 0 0 .877998 62.831176 65.925397)" fill="url(#E)"/></g></g></svg>